{"glyphs":{"א":{"ha":892,"x_min":64,"x_max":848,"o":"m 848 684 q 843 629 848 660 q 831 589 838 599 q 809 607 817 602 q 791 611 801 611 q 685 552 760 611 q 574 408 610 494 l 757 236 q 814 171 802 193 q 827 126 827 149 q 804 70 827 106 q 756 7 782 33 q 715 -18 730 -18 q 693 -4 701 -18 q 665 43 686 13 q 616 100 644 73 l 267 475 q 212 418 228 444 q 196 357 196 393 q 215 287 196 322 q 277 205 233 252 q 338 125 320 157 q 357 62 357 92 q 336 0 357 28 l 64 0 l 64 57 l 136 57 q 164 89 164 57 q 152 127 164 106 q 124 175 139 148 q 96 237 109 202 q 83 315 83 271 q 114 415 83 370 q 207 504 144 460 l 227 518 l 139 606 q 106 644 117 627 q 96 681 96 661 q 115 737 96 705 q 162 795 134 769 q 204 822 191 822 q 227 808 216 822 q 277 738 245 778 q 336 668 309 698 l 518 471 q 682 614 584 562 q 628 644 647 614 q 608 730 608 674 q 625 791 608 765 q 661 817 642 817 q 666 813 665 817 q 667 798 667 809 q 708 766 667 766 l 771 768 q 828 745 808 768 q 848 684 848 722 z "},"ב":{"ha":669,"x_min":18,"x_max":625,"o":"m 582 0 l 18 0 l 68 193 l 447 193 q 470 281 465 239 q 475 376 475 323 q 469 490 475 434 q 448 561 463 545 q 389 576 433 576 l 102 576 q 50 613 69 576 q 31 705 31 650 q 45 784 31 751 q 78 817 60 817 q 90 804 90 817 l 90 791 q 121 768 90 768 l 415 768 q 499 759 473 768 q 536 726 525 749 q 552 629 548 702 q 557 471 557 556 q 545 267 557 313 q 525 230 541 253 q 497 193 510 207 l 625 193 l 582 0 z "},"ג":{"ha":458,"x_min":11,"x_max":421,"o":"m 421 68 q 409 16 421 43 q 385 -12 397 -12 q 372 -6 376 -12 q 363 16 367 0 q 329 114 351 62 q 279 205 307 166 q 232 101 260 172 q 196 0 205 31 l 11 0 l 50 193 l 140 193 q 205 204 186 193 q 242 257 224 215 q 258 346 260 298 l 258 494 q 252 549 258 536 q 231 570 245 563 q 186 576 216 576 l 172 576 q 103 681 103 576 q 117 775 103 732 q 147 818 132 818 q 160 804 160 818 q 169 779 160 789 q 204 768 177 768 l 224 768 q 301 761 278 768 q 336 738 323 753 q 349 693 349 722 q 345 654 349 675 q 335 606 340 633 q 326 541 330 578 q 322 453 322 504 q 378 208 322 317 q 412 126 404 155 q 421 68 421 98 z "},"ד":{"ha":668,"x_min":17,"x_max":603,"o":"m 603 624 q 600 592 603 601 q 589 582 596 584 q 538 546 551 574 q 525 461 525 519 q 535 294 525 410 q 545 90 545 176 q 539 56 545 68 q 524 33 533 44 q 507 22 517 28 q 486 11 497 16 q 466 0 475 5 q 452 -8 456 -5 q 427 -17 432 -17 q 414 -4 414 -17 l 416 3 q 433 147 433 43 l 431 290 l 429 397 q 446 497 429 456 q 501 576 463 537 l 100 576 q 37 608 58 576 q 17 707 17 640 q 32 784 17 752 q 64 817 46 817 q 77 806 77 817 l 75 790 q 81 773 75 779 q 103 768 87 768 l 553 768 q 589 755 575 768 q 603 721 603 743 l 603 624 z "},"ה":{"ha":799,"x_min":69,"x_max":699,"o":"m 699 593 q 685 566 699 574 q 653 496 653 544 q 671 342 653 444 q 696 94 696 199 q 690 54 696 68 q 675 31 685 41 q 631 -2 664 16 l 619 -9 l 607 -14 l 595 -17 q 579 -1 579 -17 l 581 9 q 590 109 590 43 q 577 297 590 180 q 564 433 564 414 q 578 514 564 482 q 627 576 592 547 l 140 576 q 89 613 108 576 q 69 707 69 650 q 76 762 69 737 q 94 803 83 787 q 115 818 105 818 q 129 806 129 818 l 129 790 q 134 773 129 779 q 154 768 138 768 l 653 768 q 699 711 699 768 l 699 593 m 239 436 q 229 412 239 433 q 216 302 216 368 l 220 100 q 212 51 220 66 q 183 20 204 35 q 136 -6 162 5 q 97 -17 111 -17 q 82 -1 82 -17 l 84 8 q 106 121 106 52 l 104 282 q 112 352 104 332 q 141 394 120 372 q 188 430 163 415 q 227 446 214 446 q 235 443 231 446 q 239 436 239 440 z "},"ו":{"ha":355,"x_min":17,"x_max":254,"o":"m 254 61 q 247 37 254 46 q 217 10 239 28 q 186 -8 195 -8 q 176 -3 178 -8 q 174 17 174 1 l 174 500 q 170 550 174 536 q 157 571 166 565 q 121 576 147 576 l 82 576 q 34 607 52 576 q 17 689 17 637 q 31 778 17 737 q 62 818 45 818 q 74 806 74 818 l 74 793 q 102 768 74 768 l 140 768 q 233 751 212 768 q 254 675 254 733 l 254 61 z "},"ז":{"ha":387,"x_min":72,"x_max":353,"o":"m 353 652 q 348 604 353 625 q 338 582 343 582 q 322 591 332 582 q 289 607 308 607 q 255 589 271 607 q 232 532 239 572 q 224 449 224 493 q 234 275 224 411 q 244 106 244 139 q 231 47 244 73 q 183 11 222 32 q 132 -11 144 -11 q 122 0 122 -11 l 125 13 q 144 167 144 74 q 139 271 144 203 q 134 387 134 339 q 141 475 134 444 q 166 538 149 507 q 212 604 183 569 q 72 703 72 604 q 80 759 72 734 q 101 800 87 783 q 123 817 114 817 q 139 807 139 817 l 139 794 q 172 768 139 768 l 254 768 q 327 738 302 768 q 353 652 353 708 z "},"ח":{"ha":822,"x_min":94,"x_max":722,"o":"m 277 576 q 227 494 239 532 q 214 395 214 456 q 222 262 214 355 q 229 121 229 170 q 207 36 229 63 q 119 -17 154 -17 q 110 -5 110 -17 l 113 5 q 125 121 125 42 l 121 245 l 118 383 q 140 481 118 437 q 212 576 161 524 l 170 576 q 115 609 136 576 q 94 693 94 641 q 110 777 94 736 q 138 818 125 818 q 150 812 144 818 q 155 796 155 806 q 184 768 155 768 l 681 768 q 714 758 706 768 q 722 721 722 747 l 722 600 q 711 567 722 575 q 676 484 676 541 q 698 290 676 437 q 720 89 720 144 q 681 16 720 47 q 618 -16 642 -16 q 610 -12 614 -16 q 607 -1 607 -7 q 611 21 607 6 q 615 65 615 37 q 602 279 615 138 q 587 440 587 418 q 600 507 587 476 q 642 576 612 537 l 277 576 z "},"ט":{"ha":839,"x_min":58,"x_max":766,"o":"m 766 463 q 761 363 766 409 q 741 259 755 318 q 667 0 726 199 l 164 0 q 159 87 164 45 q 132 222 154 129 q 106 406 106 332 q 115 517 106 471 q 146 611 125 563 q 77 633 95 611 q 58 718 58 655 q 74 788 58 760 q 111 817 90 817 q 126 806 126 817 l 123 791 q 158 768 123 768 l 211 768 q 301 657 301 768 q 296 608 301 633 q 285 583 291 583 q 278 587 281 583 q 244 607 260 607 q 216 593 227 607 q 194 538 205 580 q 183 457 183 496 q 196 339 183 399 q 239 193 208 279 l 629 193 q 675 317 661 261 q 690 436 690 373 q 662 536 690 498 q 586 574 633 574 q 499 537 535 574 q 422 411 463 500 l 364 432 q 477 702 425 628 q 602 775 528 775 q 682 736 643 775 q 744 626 721 696 q 766 463 766 555 z "},"י":{"ha":364,"x_min":35,"x_max":294,"o":"m 294 587 q 281 475 294 518 q 235 399 267 432 q 167 343 203 366 q 119 321 132 321 q 114 323 117 321 q 99 341 111 325 q 87 367 87 357 q 94 375 87 371 q 171 436 136 399 q 205 513 205 473 q 199 552 205 538 q 177 571 193 566 q 122 576 161 576 l 113 576 q 56 608 78 576 q 35 705 35 640 q 50 784 35 752 q 83 815 64 815 q 98 804 98 815 l 98 791 q 122 768 98 768 l 179 768 q 227 765 205 768 q 263 744 248 762 q 286 690 278 727 q 294 587 294 654 z "},"ך":{"ha":682,"x_min":17,"x_max":574,"o":"m 574 -189 q 570 -212 574 -201 q 549 -237 566 -224 l 530 -254 q 504 -271 512 -271 q 494 -265 496 -271 q 492 -243 492 -260 l 492 498 q 488 549 492 533 q 473 572 484 566 q 436 578 463 578 l 82 578 q 34 608 52 578 q 17 690 17 638 q 31 779 17 739 q 58 818 44 818 q 74 806 74 818 l 74 793 q 80 777 74 785 q 104 768 87 768 l 465 768 q 536 761 515 768 q 565 735 557 753 q 574 675 574 718 l 574 -189 z "},"כ":{"ha":679,"x_min":20,"x_max":606,"o":"m 606 436 q 500 0 606 164 l 20 0 l 69 193 l 363 193 q 458 216 424 193 q 509 286 492 238 q 526 406 526 334 q 490 535 526 494 q 379 576 454 576 l 119 576 q 56 606 77 576 q 35 690 35 635 q 41 750 35 720 q 59 799 48 781 q 78 817 69 817 q 93 804 93 817 l 93 791 q 123 768 93 768 l 418 768 q 504 753 475 768 q 557 693 534 737 q 593 579 581 650 q 606 436 606 509 z "},"ל":{"ha":650,"x_min":-14,"x_max":579,"o":"m 579 539 q 571 409 579 449 q 535 336 563 368 q 435 258 507 303 q 309 171 332 193 q 277 131 286 150 q 268 92 268 113 q 273 68 268 82 q 278 45 278 55 q 260 -2 278 16 q 214 -20 241 -20 q 167 -2 185 -20 q 149 45 149 16 q 184 153 149 104 q 297 253 219 203 q 377 303 348 285 q 418 334 406 322 q 490 464 490 375 q 483 524 490 488 q 459 568 476 559 q 382 576 441 576 l 100 576 q 52 596 67 576 q 29 660 36 616 q 22 782 22 705 q 47 892 22 838 q 54 924 54 907 q 22 957 54 945 q -5 984 3 964 q -14 1048 -14 1004 q -5 1091 -14 1071 q 19 1125 4 1111 q 43 1140 34 1140 q 58 1126 58 1140 q 64 1111 58 1118 q 96 1099 71 1104 q 169 1076 155 1085 q 183 1047 183 1066 q 169 1013 183 1034 q 139 965 155 992 q 108 904 122 937 q 94 832 94 871 q 107 781 94 793 q 157 768 121 768 l 471 768 q 528 753 507 768 q 558 705 549 739 q 573 624 568 672 q 579 539 579 576 z "},"ם":{"ha":867,"x_min":109,"x_max":758,"o":"m 758 454 q 747 0 758 304 l 122 0 l 121 328 q 127 465 121 437 q 155 521 134 492 q 207 576 177 549 l 183 576 q 129 612 149 576 q 109 704 109 648 q 125 783 109 751 q 157 815 141 815 q 171 813 168 815 q 175 806 175 811 l 175 790 q 203 768 175 768 l 586 768 q 681 752 653 768 q 725 700 708 736 q 750 603 743 664 q 758 454 758 541 m 679 374 q 668 495 679 451 q 634 557 656 538 q 555 576 612 576 l 283 576 q 218 494 234 529 q 203 407 203 460 q 210 193 203 294 l 664 193 q 679 374 679 264 z "},"מ":{"ha":823,"x_min":32,"x_max":751,"o":"m 751 347 q 739 165 751 257 q 704 0 726 73 l 304 0 l 343 195 l 593 195 q 626 199 616 195 q 645 216 636 203 q 661 248 654 229 q 672 299 667 268 q 676 357 676 330 q 457 582 676 582 q 151 28 151 582 q 146 3 151 10 q 126 -4 141 -4 l 93 -4 q 69 25 69 -4 q 101 316 69 185 q 193 541 132 448 q 196 564 196 545 q 179 597 196 586 q 107 611 162 609 q 52 643 71 611 q 32 729 32 675 q 45 791 32 765 q 74 817 58 817 q 92 794 92 817 q 121 768 92 768 l 151 768 q 228 746 200 768 q 256 684 256 723 l 253 636 q 256 608 253 616 q 350 707 324 673 q 383 775 376 741 q 457 782 433 782 q 674 667 597 782 q 751 347 751 552 z "},"ן":{"ha":354,"x_min":36,"x_max":285,"o":"m 285 648 q 269 579 285 619 l 244 528 q 225 415 225 488 l 239 -193 q 231 -216 239 -205 q 192 -245 222 -227 l 160 -267 q 136 -279 143 -279 q 131 -272 131 -279 l 134 -249 q 140 -154 139 -193 q 140 -50 140 -115 l 140 15 l 142 252 l 142 336 q 145 448 142 425 q 160 489 149 471 q 178 525 170 509 q 186 554 186 541 q 147 576 186 576 l 118 576 q 58 612 81 576 q 36 704 36 648 q 51 780 36 743 q 81 817 65 817 q 94 804 94 817 l 93 790 q 119 768 93 768 l 211 768 q 270 753 255 768 q 285 704 285 739 l 285 648 z "},"נ":{"ha":452,"x_min":12,"x_max":371,"o":"m 371 186 q 362 118 371 171 q 335 0 353 66 l 12 0 l 61 193 l 249 193 q 267 197 262 193 q 271 208 271 201 q 263 229 271 214 q 245 263 255 243 q 228 304 235 282 q 220 347 220 326 q 230 428 220 363 q 240 521 240 492 q 225 562 240 546 q 192 578 210 578 l 171 578 q 90 685 90 578 q 104 775 90 732 q 131 818 117 818 q 147 798 147 818 q 156 774 147 781 q 192 768 165 768 l 243 768 q 321 754 302 768 q 340 704 340 741 q 335 659 340 685 q 301 424 301 502 q 311 333 301 366 q 353 239 321 299 q 371 186 371 204 z "},"ס":{"ha":790,"x_min":66,"x_max":725,"o":"m 66 704 q 74 759 66 734 q 93 799 81 783 q 115 815 105 815 q 134 806 134 815 l 134 790 q 161 768 134 768 l 534 768 q 614 750 585 768 q 669 677 642 732 q 711 559 696 622 q 725 422 725 496 q 685 187 725 288 q 571 37 646 86 q 395 -12 497 -12 q 161 74 241 -12 q 82 323 82 159 q 108 467 82 407 q 178 576 134 528 l 136 576 q 84 606 102 576 q 66 704 66 636 m 643 403 q 635 477 643 446 q 609 533 627 509 q 569 567 592 557 q 494 576 545 576 l 269 576 q 197 490 223 538 q 171 387 171 441 q 229 237 171 288 q 396 187 286 187 q 579 244 515 187 q 643 403 643 300 z "},"ע":{"ha":786,"x_min":35,"x_max":704,"o":"m 704 699 q 678 565 704 656 q 642 335 642 433 q 647 277 642 304 q 660 229 653 250 q 673 190 667 207 q 679 163 679 173 q 667 83 679 127 q 637 0 654 39 l 35 0 l 85 193 l 200 193 q 207 219 203 201 q 210 254 210 237 q 198 309 210 281 q 172 369 186 338 q 146 434 158 399 q 135 507 135 469 q 143 557 135 534 q 171 611 152 580 q 110 621 127 611 q 82 654 92 631 q 72 718 72 677 q 80 768 72 746 q 100 804 87 790 q 122 818 113 818 q 138 807 138 818 l 138 796 q 175 768 138 768 l 222 768 q 278 759 262 768 q 302 729 294 750 q 310 668 310 707 q 304 615 310 633 q 293 597 299 597 q 281 602 287 597 q 265 607 278 605 q 241 610 252 610 q 211 568 211 610 q 219 537 211 557 q 269 432 227 517 q 311 302 311 354 q 303 271 311 289 q 258 193 296 252 l 543 193 q 559 204 559 193 q 554 252 559 221 q 549 319 549 283 q 602 527 549 392 q 618 578 618 568 q 607 601 618 591 q 572 611 596 611 l 547 611 q 491 634 509 611 q 473 705 473 657 q 487 783 473 748 q 517 818 500 818 q 530 804 530 818 l 530 789 q 558 768 530 768 l 608 768 q 679 750 654 768 q 704 699 704 732 z "},"ף":{"ha":720,"x_min":49,"x_max":611,"o":"m 119 578 q 72 608 89 578 q 54 690 54 638 q 68 777 54 736 q 96 818 81 818 q 111 806 111 818 l 111 793 q 118 777 111 785 q 142 768 124 768 l 479 768 q 585 743 559 768 q 611 640 611 718 l 611 -189 q 607 -212 611 -201 q 586 -237 603 -224 l 567 -254 q 542 -271 549 -271 q 531 -265 533 -271 q 529 -243 529 -260 l 529 498 q 525 549 529 533 q 511 572 521 566 q 473 578 500 578 l 232 578 q 175 529 199 559 q 151 475 151 498 q 184 453 151 453 l 229 452 q 291 428 267 452 q 314 363 314 405 q 298 255 314 300 q 261 210 283 210 q 244 227 244 210 q 232 273 244 258 q 182 288 219 288 q 130 277 148 288 q 107 237 111 266 q 90 218 104 218 q 60 251 71 218 q 49 345 49 284 q 75 474 49 414 q 149 578 100 534 l 119 578 z "},"פ":{"ha":755,"x_min":41,"x_max":682,"o":"m 682 436 q 576 0 682 166 l 41 0 l 92 193 l 439 193 q 535 216 500 193 q 586 287 569 239 q 603 406 603 334 q 567 535 603 494 q 456 576 531 576 l 250 576 q 214 545 227 564 q 200 515 200 527 q 233 493 200 493 l 278 492 q 339 468 316 492 q 363 403 363 445 q 347 296 363 341 q 310 250 331 250 q 293 267 293 250 q 280 313 293 298 q 231 328 268 328 q 179 318 197 328 q 155 278 161 308 q 139 258 153 258 q 108 292 119 258 q 97 385 97 326 q 168 576 97 501 l 149 576 q 101 608 118 576 q 83 690 83 640 q 98 776 83 736 q 126 817 112 817 q 142 804 142 817 l 142 791 q 172 768 142 768 l 494 768 q 581 753 551 768 q 634 693 610 737 q 670 579 657 650 q 682 436 682 509 z "},"ץ":{"ha":724,"x_min":72,"x_max":715,"o":"m 715 673 q 709 619 715 645 q 696 593 702 593 q 690 595 692 593 q 684 600 687 598 q 673 606 677 604 q 663 608 670 608 q 614 581 643 608 q 483 455 555 528 q 359 321 412 382 q 270 198 307 259 q 219 82 232 138 q 207 -68 207 26 l 207 -201 q 201 -224 207 -217 q 178 -241 195 -231 q 136 -264 146 -264 q 125 -259 127 -264 q 122 -237 122 -254 l 122 282 q 131 400 122 349 q 168 511 140 452 q 193 579 193 565 q 184 598 193 592 q 149 608 176 605 q 103 622 120 611 q 79 649 87 632 q 72 708 72 666 q 89 779 72 743 q 122 814 105 814 q 135 799 135 814 q 140 778 135 786 q 168 768 144 769 l 201 766 q 269 740 243 765 q 294 677 294 715 q 278 597 294 645 q 217 444 233 505 q 200 326 200 382 q 205 232 200 299 q 360 427 257 312 q 547 610 464 541 q 492 632 513 610 q 471 696 471 655 q 489 776 471 736 q 522 817 508 817 q 534 807 534 817 l 534 796 q 546 774 534 781 q 578 768 557 768 l 631 768 q 682 759 666 768 q 707 730 698 750 q 715 673 715 710 z "},"צ":{"ha":728,"x_min":33,"x_max":675,"o":"m 675 693 q 669 634 675 674 q 657 595 663 595 q 643 603 651 595 q 619 611 638 611 q 566 574 597 611 q 503 488 534 537 q 435 355 473 438 l 616 214 q 657 160 657 182 q 608 0 657 153 l 66 0 l 115 191 l 436 191 q 449 196 449 191 q 435 211 449 201 l 248 347 q 163 419 178 398 q 147 468 147 439 q 161 559 147 495 l 164 579 q 153 605 164 599 q 103 611 141 611 q 53 644 73 611 q 33 722 33 676 q 48 784 33 752 q 79 817 64 817 q 90 804 90 817 l 90 790 q 94 774 90 781 q 114 768 98 768 l 146 768 q 216 751 193 768 q 239 704 239 734 q 228 654 239 687 q 216 576 216 622 q 227 534 216 553 q 260 492 237 515 q 370 406 284 469 q 529 611 432 530 l 509 611 q 467 636 481 611 q 453 725 453 662 q 469 787 453 757 q 498 818 484 818 q 506 814 503 818 q 510 806 510 811 l 510 793 q 517 775 510 781 q 546 768 524 768 l 586 768 q 655 749 636 768 q 675 693 675 730 z "},"ק":{"ha":743,"x_min":77,"x_max":675,"o":"m 189 -201 q 183 -225 189 -217 q 161 -244 177 -233 q 122 -264 139 -264 q 109 -244 109 -264 l 109 418 q 113 437 109 432 q 136 454 118 443 q 180 478 172 478 q 188 476 186 478 q 189 468 189 474 l 189 -201 m 567 768 q 652 715 633 768 q 675 539 675 633 q 669 422 675 461 q 643 353 663 382 q 566 281 623 321 q 464 210 521 250 q 391 145 408 169 q 374 92 374 122 q 378 68 374 82 q 383 45 383 55 q 365 -3 383 14 q 319 -20 347 -20 q 272 -1 290 -20 q 254 45 254 17 q 292 157 254 106 q 441 280 330 208 q 514 334 480 306 q 567 387 549 353 q 586 464 586 421 q 581 513 586 484 q 568 555 576 543 q 542 572 560 568 q 478 576 524 576 l 161 576 q 77 690 77 576 q 91 776 77 736 q 119 817 105 817 q 135 804 135 817 l 135 791 q 165 768 135 768 l 567 768 z "},"ר":{"ha":682,"x_min":17,"x_max":574,"o":"m 82 578 q 34 608 52 578 q 17 690 17 638 q 31 779 17 739 q 58 818 44 818 q 74 806 74 818 l 74 793 q 80 777 74 785 q 104 768 87 768 l 465 768 q 536 761 515 768 q 565 735 557 753 q 574 675 574 718 l 574 74 q 549 25 574 45 l 530 8 q 504 -8 512 -8 q 494 -3 496 -8 q 492 20 492 3 l 492 498 q 488 549 492 533 q 473 572 484 566 q 436 578 463 578 l 82 578 z "},"ש":{"ha":983,"x_min":53,"x_max":972,"o":"m 972 681 q 952 602 971 640 q 869 486 933 564 q 799 381 827 435 q 734 235 771 327 l 642 0 l 196 0 q 121 318 143 193 q 98 498 98 444 q 119 614 98 567 q 67 652 81 625 q 53 718 53 680 q 71 785 53 754 q 104 817 89 817 q 114 804 114 817 q 176 766 114 766 q 249 747 229 766 q 269 690 269 728 q 263 625 269 656 q 252 595 257 595 q 237 604 246 595 q 215 612 229 612 q 183 591 192 612 q 174 526 174 569 q 239 187 174 377 q 345 396 273 260 q 454 612 424 549 q 407 643 422 618 q 392 704 392 669 q 411 779 392 741 q 444 817 429 817 q 454 810 452 817 q 466 781 458 790 q 494 770 474 771 l 534 766 q 614 681 614 762 q 607 620 614 650 q 593 589 600 589 l 578 598 q 551 607 564 607 q 515 581 531 607 q 480 515 499 552 q 318 193 460 478 l 628 193 l 663 275 q 775 479 715 402 q 830 551 810 524 q 850 593 850 578 q 844 610 850 604 q 819 621 838 616 q 765 658 781 637 q 749 711 749 680 q 759 763 749 739 q 784 802 770 787 q 807 817 798 817 q 817 810 815 816 l 820 798 q 844 775 824 779 l 908 764 q 955 736 937 758 q 972 681 972 714 z "},"ת":{"ha":847,"x_min":24,"x_max":743,"o":"m 743 389 l 743 308 q 720 25 743 54 q 686 -2 707 10 q 656 -14 665 -14 q 644 -5 644 -14 l 648 22 q 664 329 664 96 q 654 477 664 424 q 622 553 644 530 q 546 576 600 576 l 286 576 q 225 495 248 541 q 203 400 203 448 q 218 306 203 347 q 250 235 233 265 q 267 195 267 204 q 248 108 267 171 q 210 0 229 45 l 24 0 l 79 195 l 142 195 q 163 207 163 195 l 157 221 q 132 283 142 245 q 122 358 122 320 q 145 472 122 420 q 222 576 168 523 l 182 576 q 117 606 141 576 q 93 692 93 636 q 108 775 93 736 q 138 815 123 815 q 153 806 153 815 l 153 790 q 178 768 153 768 l 579 768 q 673 752 646 768 q 715 695 700 736 q 736 583 730 654 q 743 389 743 512 z "}}}
